<?xml version="1.0" encoding="UTF-8" standalone="no"?>
<!DOCTYPE svg PUBLIC "-//W3C//DTD SVG 1.0//EN"
 "http://www.w3.org/TR/2001/REC-SVG-20010904/DTD/svg10.dtd" [
 <!ATTLIST svg xmlns:xlink CDATA #FIXED "http://www.w3.org/1999/xlink">
]>
<!-- Generated by Graphviz version 2.18 (Fri Mar 28 18:30:32 GMT 2008)
 -->
<!-- Title: G Pages: 1 -->
<svg width="440pt" height="348pt"
 viewBox="0.00 0.00 440.00 348.00" xmlns="http://www.w3.org/2000/svg" xmlns:xlink="http://www.w3.org/1999/xlink">
<g id="graph0" class="graph" transform="scale(1 1) rotate(0) translate(4 344)">
<title>G</title>
<!-- cvo -->
<g id="node1" class="node"><title>cvo</title>
<polygon style="fill:white;stroke:black;" points="252,-340 90,-340 90,-282 252,-282 252,-340"/>
<text text-anchor="middle" x="171" y="-306.4" style="font-family:Times New Roman;font-size:14.00;">Convex Optimization</text>
</g>
<!-- gp -->
<g id="node2" class="node"><title>gp</title>
<polygon style="fill:white;stroke:black;" points="162,-246 4.26326e-014,-246 0,-188 162,-188 162,-246"/>
<text text-anchor="middle" x="81" y="-212.4" style="font-family:Times New Roman;font-size:14.00;">Geometric Programming</text>
</g>
<!-- cvo&#45;&#45;gp -->
<g id="edge2" class="edge"><title>cvo&#45;&#45;gp</title>
<path style="fill:none;stroke:black;" d="M143,-282C132,-271 120,-258 109,-246"/>
</g>
<!-- co -->
<g id="node3" class="node"><title>co</title>
<polygon style="fill:white;stroke:black;" points="342,-246 180,-246 180,-188 342,-188 342,-246"/>
<text text-anchor="middle" x="261" y="-212.4" style="font-family:Times New Roman;font-size:14.00;">Conic Optimization</text>
</g>
<!-- cvo&#45;&#45;co -->
<g id="edge4" class="edge"><title>cvo&#45;&#45;co</title>
<path style="fill:none;stroke:black;" d="M199,-282C210,-271 222,-258 233,-246"/>
</g>
<!-- scp -->
<g id="node4" class="node"><title>scp</title>
<polygon style="fill:white;stroke:black;" points="252,-152 90,-152 90,-94 252,-94 252,-152"/>
<text text-anchor="middle" x="171" y="-126.4" style="font-family:Times New Roman;font-size:14.00;">Second&#45;order Cone</text>
<text text-anchor="middle" x="171" y="-110.4" style="font-family:Times New Roman;font-size:14.00;">Programming</text>
</g>
<!-- co&#45;&#45;scp -->
<g id="edge6" class="edge"><title>co&#45;&#45;scp</title>
<path style="fill:none;stroke:black;" d="M233,-188C222,-177 210,-164 199,-152"/>
</g>
<!-- sp -->
<g id="node5" class="node"><title>sp</title>
<polygon style="fill:white;stroke:black;" points="432,-152 270,-152 270,-94 432,-94 432,-152"/>
<text text-anchor="middle" x="351" y="-126.4" style="font-family:Times New Roman;font-size:14.00;">Semidefinite</text>
<text text-anchor="middle" x="351" y="-110.4" style="font-family:Times New Roman;font-size:14.00;">Programming</text>
</g>
<!-- co&#45;&#45;sp -->
<g id="edge8" class="edge"><title>co&#45;&#45;sp</title>
<path style="fill:none;stroke:black;" d="M289,-188C300,-177 312,-164 323,-152"/>
</g>
<!-- qp -->
<g id="node6" class="node"><title>qp</title>
<polygon style="fill:white;stroke:black;" points="252,-58 90,-58 90,-2.13163e-014 252,-0 252,-58"/>
<text text-anchor="middle" x="171" y="-40.4" style="font-family:Times New Roman;font-size:14.00;">(Convex)</text>
<text text-anchor="middle" x="171" y="-24.4" style="font-family:Times New Roman;font-size:14.00;">Quadratically Constrained</text>
<text text-anchor="middle" x="171" y="-8.4" style="font-family:Times New Roman;font-size:14.00;">Quadratic Programming</text>
</g>
<!-- scp&#45;&#45;qp -->
<g id="edge10" class="edge"><title>scp&#45;&#45;qp</title>
<path style="fill:none;stroke:black;" d="M171,-94C171,-83 171,-70 171,-58"/>
</g>
<!-- lp -->
<g id="node7" class="node"><title>lp</title>
<polygon style="fill:white;stroke:black;" points="432,-58 270,-58 270,-2.13163e-014 432,-0 432,-58"/>
<text text-anchor="middle" x="351" y="-24.4" style="font-family:Times New Roman;font-size:14.00;">Linear Programming</text>
</g>
<!-- scp&#45;&#45;lp -->
<g id="edge12" class="edge"><title>scp&#45;&#45;lp</title>
<path style="fill:none;stroke:black;" d="M227,-94C249,-82 274,-69 295,-58"/>
</g>
<!-- sp&#45;&#45;lp -->
<g id="edge14" class="edge"><title>sp&#45;&#45;lp</title>
<path style="fill:none;stroke:black;" d="M351,-94C351,-83 351,-70 351,-58"/>
</g>
</g>
</svg>
