<?xml version="1.0" encoding="UTF-8" standalone="no"?>
<!DOCTYPE svg PUBLIC "-//W3C//DTD SVG 1.1//EN" "http://www.w3.org/Graphics/SVG/1.1/DTD/svg11.dtd">
<!-- Created with Vectornator (http://vectornator.io/) -->
<svg height="100%" stroke-miterlimit="10" style="fill-rule:nonzero;clip-rule:evenodd;stroke-linecap:round;stroke-linejoin:round;" version="1.1" viewBox="0 0 290 304" width="100%" xml:space="preserve" xmlns="http://www.w3.org/2000/svg" xmlns:xlink="http://www.w3.org/1999/xlink">
<defs/>
<g id="Layer-1">
<path d="M89.7703 241.825C89.7703 209.3 115.098 182.934 146.341 182.934C177.585 182.934 202.913 209.3 202.913 241.825C202.913 274.35 177.585 300.716 146.341 300.716C115.098 300.716 89.7703 274.35 89.7703 241.825Z" fill="none" opacity="1" stroke="#000000" stroke-linecap="butt" stroke-linejoin="round" stroke-width="2"/>
<path d="M45.0279 196.039C45.0279 138.227 90.3966 91.3615 146.362 91.3615C202.327 91.3615 247.696 138.227 247.696 196.039C247.696 253.851 202.327 300.716 146.362 300.716C90.3966 300.716 45.0279 253.851 45.0279 196.039Z" fill="none" opacity="1" stroke="#000000" stroke-linecap="butt" stroke-linejoin="round" stroke-width="2"/>
<path d="M71.9572 223.009C71.9572 180.207 105.462 145.509 146.792 145.509C188.122 145.509 221.627 180.207 221.627 223.009C221.627 265.811 188.121 300.509 146.791 300.509C105.461 300.509 71.9572 265.811 71.9572 223.009Z" fill="none" opacity="1" stroke="#000000" stroke-linecap="butt" stroke-linejoin="round" stroke-width="2"/>
<path d="M26.2854 182.934C26.2854 112.767 77.1907 51.0816 145 51.0816C212.809 51.0816 267.828 112.767 267.828 182.934C267.828 253.101 214.643 300.716 146.834 300.716C79.0244 300.716 26.2854 253.101 26.2854 182.934Z" fill="none" opacity="1" stroke="#000000" stroke-linecap="butt" stroke-linejoin="round" stroke-width="2"/>
<path d="M5.65937 153.736C5.65937 72.5613 68.6449 6.75607 146.341 6.75607C224.038 6.75607 287.023 72.5613 287.023 153.736C287.023 234.911 224.038 300.716 146.341 300.716C68.6449 300.716 5.65937 234.911 5.65937 153.736Z" fill="none" opacity="1" stroke="#000000" stroke-linecap="butt" stroke-linejoin="round" stroke-width="2"/>
<g fill="#000000" opacity="1" stroke="none">
<path d="M140.404 229.591L140.404 241.397L147.533 241.397L147.533 243.985L137.396 243.985L137.396 229.591L140.404 229.591Z"/>
<path d="M155.726 238.809L152.67 238.809L152.67 243.985L149.681 243.985L149.681 229.591L155.951 229.591C157.396 229.591 158.549 229.962 159.408 230.704C160.267 231.446 160.697 232.595 160.697 234.151C160.697 235.85 160.267 237.052 159.408 237.755C158.549 238.458 157.321 238.809 155.726 238.809ZM157.719 234.171C157.719 233.422 157.522 232.888 157.128 232.569C156.734 232.25 156.182 232.091 155.473 232.091L152.67 232.091L152.67 236.329L155.473 236.329C156.182 236.329 156.734 236.156 157.128 235.811C157.522 235.466 157.719 234.919 157.719 234.171Z"/>
</g>
<g fill="#000000" opacity="1" stroke="none">
<path d="M125.552 123.014L128.032 123.61C129.12 123.87 129.94 124.219 130.493 124.655C131.353 125.332 131.782 126.312 131.782 127.594C131.782 128.909 131.279 130.002 130.274 130.871C129.268 131.74 127.847 132.174 126.011 132.174C124.136 132.174 122.661 131.746 121.587 130.89C120.513 130.034 119.976 128.857 119.976 127.36L122.847 127.36C122.938 128.017 123.117 128.509 123.384 128.835C123.872 129.427 124.709 129.723 125.894 129.723C126.603 129.723 127.179 129.645 127.622 129.489C128.462 129.189 128.882 128.633 128.882 127.819C128.882 127.344 128.674 126.976 128.257 126.715C127.84 126.461 127.186 126.237 126.294 126.042L124.771 125.7C123.273 125.361 122.238 124.993 121.665 124.596C120.695 123.932 120.21 122.894 120.21 121.481C120.21 120.192 120.679 119.121 121.616 118.268C122.554 117.415 123.931 116.989 125.747 116.989C127.264 116.989 128.558 117.391 129.629 118.195C130.7 118.999 131.262 120.166 131.314 121.696L128.423 121.696C128.371 120.83 127.993 120.215 127.29 119.85C126.821 119.609 126.239 119.489 125.542 119.489C124.767 119.489 124.149 119.645 123.687 119.958C123.224 120.27 122.993 120.706 122.993 121.266C122.993 121.78 123.221 122.165 123.677 122.419C123.97 122.588 124.595 122.786 125.552 123.014Z"/>
<path d="M145.093 118.649C146.545 119.971 147.271 121.95 147.271 124.586C147.271 127.171 146.545 129.15 145.093 130.524C144.006 131.644 142.433 132.204 140.376 132.204C138.319 132.204 136.747 131.644 135.659 130.524C134.201 129.15 133.472 127.171 133.472 124.586C133.472 121.95 134.201 119.971 135.659 118.649C136.747 117.529 138.319 116.969 140.376 116.969C142.433 116.969 144.006 117.529 145.093 118.649ZM140.376 119.518C139.185 119.518 138.234 119.958 137.525 120.836C136.815 121.715 136.46 122.965 136.46 124.586C136.46 126.208 136.815 127.458 137.525 128.336C138.234 129.215 139.185 129.655 140.376 129.655C141.568 129.655 142.513 129.215 143.213 128.336C143.913 127.458 144.263 126.208 144.263 124.586C144.263 122.972 143.913 121.724 143.213 120.841C142.513 119.959 141.568 119.518 140.376 119.518Z"/>
<path d="M155.601 132.204C153.53 132.204 151.903 131.54 150.718 130.211C149.533 128.877 148.941 127.047 148.941 124.723C148.941 122.21 149.614 120.273 150.962 118.913C152.134 117.728 153.625 117.135 155.435 117.135C157.857 117.135 159.627 117.93 160.747 119.518C161.366 120.41 161.698 121.305 161.743 122.204L158.735 122.204C158.54 121.514 158.29 120.993 157.984 120.641C157.437 120.016 156.626 119.704 155.552 119.704C154.458 119.704 153.596 120.145 152.964 121.027C152.332 121.909 152.017 123.157 152.017 124.772C152.017 126.387 152.35 127.596 153.018 128.4C153.685 129.204 154.533 129.606 155.562 129.606C156.616 129.606 157.42 129.261 157.974 128.571C158.28 128.2 158.534 127.643 158.735 126.901L161.714 126.901C161.454 128.47 160.788 129.746 159.717 130.729C158.646 131.712 157.274 132.204 155.601 132.204Z"/>
<path d="M170.122 126.627L167.066 126.627L167.066 131.803L164.077 131.803L164.077 117.409L170.347 117.409C171.792 117.409 172.944 117.78 173.804 118.522C174.663 119.264 175.093 120.413 175.093 121.969C175.093 123.669 174.663 124.87 173.804 125.573C172.944 126.276 171.717 126.627 170.122 126.627ZM172.114 121.989C172.114 121.24 171.917 120.706 171.524 120.387C171.13 120.068 170.578 119.909 169.868 119.909L167.066 119.909L167.066 124.147L169.868 124.147C170.578 124.147 171.13 123.975 171.524 123.629C171.917 123.284 172.114 122.738 172.114 121.989Z"/>
</g>
<g fill="#000000" opacity="1" stroke="none">
<path d="M142.38 157.314C143.838 158.662 144.567 160.547 144.567 162.969C144.567 164.251 144.411 165.326 144.098 166.191C143.844 167.018 143.47 167.705 142.975 168.252L144.636 169.805L143.063 171.445L141.325 169.805C140.798 170.124 140.342 170.348 139.958 170.479C139.313 170.693 138.542 170.801 137.643 170.801C135.768 170.801 134.219 170.241 132.995 169.121C131.511 167.773 130.768 165.794 130.768 163.184C130.768 160.553 131.53 158.564 133.053 157.217C134.297 156.117 135.843 155.566 137.692 155.566C139.554 155.566 141.117 156.149 142.38 157.314ZM137.858 166.494L139.411 164.873L140.866 166.26C141.094 165.791 141.253 165.381 141.344 165.029C141.488 164.502 141.559 163.887 141.559 163.184C141.559 161.569 141.229 160.321 140.568 159.438C139.907 158.556 138.942 158.115 137.673 158.115C136.481 158.115 135.531 158.538 134.821 159.385C134.111 160.231 133.757 161.497 133.757 163.184C133.757 165.156 134.264 166.569 135.28 167.422C135.938 167.975 136.725 168.252 137.643 168.252C137.988 168.252 138.32 168.21 138.639 168.125C138.815 168.079 139.04 167.998 139.313 167.881L137.858 166.494Z"/>
<path d="M152.975 165.225L149.919 165.225L149.919 170.4L146.93 170.4L146.93 156.006L153.2 156.006C154.645 156.006 155.798 156.377 156.657 157.119C157.516 157.861 157.946 159.01 157.946 160.566C157.946 162.266 157.516 163.467 156.657 164.17C155.798 164.873 154.57 165.225 152.975 165.225ZM154.968 160.586C154.968 159.837 154.771 159.303 154.377 158.984C153.983 158.665 153.431 158.506 152.721 158.506L149.919 158.506L149.919 162.744L152.721 162.744C153.431 162.744 153.983 162.572 154.377 162.227C154.771 161.882 154.968 161.335 154.968 160.586Z"/>
</g>
<g fill="#000000" opacity="1" stroke="none">
<path d="M137.341 35.2097C135.27 35.2097 133.643 34.5456 132.458 33.2175C131.273 31.8829 130.68 30.0534 130.68 27.7292C130.68 25.2162 131.354 23.2793 132.702 21.9187C133.874 20.7338 135.365 20.1413 137.175 20.1413C139.596 20.1413 141.367 20.9356 142.487 22.5241C143.106 23.4161 143.438 24.3112 143.483 25.2097L140.475 25.2097C140.28 24.5196 140.029 23.9987 139.723 23.6472C139.177 23.0222 138.366 22.7097 137.292 22.7097C136.198 22.7097 135.335 23.1508 134.704 24.0329C134.072 24.9151 133.757 26.1635 133.757 27.778C133.757 29.3926 134.09 30.6019 134.758 31.406C135.425 32.21 136.273 32.612 137.302 32.612C138.356 32.612 139.16 32.267 139.714 31.5769C140.02 31.2058 140.274 30.6491 140.475 29.9069L143.454 29.9069C143.193 31.476 142.528 32.752 141.457 33.7351C140.386 34.7181 139.014 35.2097 137.341 35.2097Z"/>
<path d="M151.862 29.6335L148.805 29.6335L148.805 34.8093L145.817 34.8093L145.817 20.4148L152.087 20.4148C153.532 20.4148 154.684 20.7858 155.544 21.528C156.403 22.2702 156.833 23.4193 156.833 24.9753C156.833 26.6745 156.403 27.8757 155.544 28.5788C154.684 29.2819 153.457 29.6335 151.862 29.6335ZM153.854 24.9948C153.854 24.2461 153.657 23.7123 153.263 23.3933C152.87 23.0743 152.318 22.9148 151.608 22.9148L148.805 22.9148L148.805 27.153L151.608 27.153C152.318 27.153 152.87 26.9805 153.263 26.6355C153.657 26.2904 153.854 25.7435 153.854 24.9948Z"/>
</g>
<g fill="#000000" opacity="1" stroke="none">
<path d="M129.447 70.3891L131.927 70.9848C133.015 71.2452 133.835 71.5935 134.388 72.0297C135.248 72.7068 135.677 73.6866 135.677 74.9692C135.677 76.2843 135.175 77.3764 134.169 78.2455C133.163 79.1147 131.742 79.5493 129.906 79.5493C128.031 79.5493 126.556 79.1212 125.482 78.2651C124.408 77.409 123.871 76.2322 123.871 74.7348L126.742 74.7348C126.833 75.3924 127.012 75.8839 127.279 76.2094C127.767 76.8019 128.604 77.0981 129.789 77.0981C130.498 77.0981 131.075 77.02 131.517 76.8637C132.357 76.5642 132.777 76.0076 132.777 75.1938C132.777 74.7185 132.569 74.3507 132.152 74.0903C131.735 73.8364 131.081 73.6118 130.189 73.4164L128.666 73.0746C127.168 72.7361 126.133 72.3683 125.56 71.9711C124.59 71.3071 124.105 70.2687 124.105 68.8559C124.105 67.5668 124.574 66.4959 125.511 65.643C126.449 64.7901 127.826 64.3637 129.642 64.3637C131.159 64.3637 132.453 64.7657 133.524 65.5698C134.595 66.3738 135.157 67.5408 135.209 69.0707L132.318 69.0707C132.266 68.2049 131.888 67.5896 131.185 67.225C130.717 66.9842 130.134 66.8637 129.437 66.8637C128.662 66.8637 128.044 67.02 127.582 67.3325C127.12 67.645 126.888 68.0812 126.888 68.6411C126.888 69.1554 127.116 69.5395 127.572 69.7934C127.865 69.9627 128.49 70.1612 129.447 70.3891Z"/>
<path d="M148.783 66.9223C149.284 67.6385 149.626 68.4132 149.808 69.2465C149.991 70.0799 150.082 70.8741 150.082 71.6293C150.082 73.5434 149.698 75.1645 148.929 76.4926C147.888 78.283 146.28 79.1782 144.105 79.1782L137.904 79.1782L137.904 64.7836L144.105 64.7836C144.997 64.7967 145.739 64.9008 146.332 65.0961C147.341 65.4282 148.158 66.0369 148.783 66.9223ZM146.342 68.4555C145.879 67.6743 144.965 67.2836 143.597 67.2836L140.824 67.2836L140.824 76.6782L143.597 76.6782C145.017 76.6782 146.006 75.9783 146.566 74.5786C146.872 73.8103 147.025 72.8956 147.025 71.8344C147.025 70.3696 146.797 69.2433 146.342 68.4555Z"/>
<path d="M158.461 74.0024L155.404 74.0024L155.404 79.1782L152.416 79.1782L152.416 64.7836L158.685 64.7836C160.131 64.7836 161.283 65.1547 162.142 65.8969C163.002 66.6391 163.431 67.7882 163.431 69.3442C163.431 71.0434 163.002 72.2446 162.142 72.9477C161.283 73.6508 160.056 74.0024 158.461 74.0024ZM160.453 69.3637C160.453 68.615 160.256 68.0812 159.862 67.7621C159.468 67.4431 158.916 67.2836 158.207 67.2836L155.404 67.2836L155.404 71.5219L158.207 71.5219C158.916 71.5219 159.468 71.3494 159.862 71.0043C160.256 70.6593 160.453 70.1124 160.453 69.3637Z"/>
</g>
</g>
</svg>
