<svg width="600" height="300" viewBox="0 0 600 300" xmlns="http://www.w3.org/2000/svg">
  <defs>
    <style>
      .title { font-family: 'Inter', sans-serif; font-size: 18px; font-weight: 600; fill: #e8eaf0; }
      .label { font-family: 'Inter', sans-serif; font-size: 14px; fill: #9ca3ba; }
      .point { fill: #6bb8ff; stroke: #8fcdff; stroke-width: 1.5; }
      .hull-line { stroke: #72f5a8; stroke-width: 3; fill: url(#hullGrad); }
    </style>
    <linearGradient id="hullGrad" x1="0%" y1="0%" x2="100%" y2="100%">
      <stop offset="0%" style="stop-color:#6bb8ff;stop-opacity:0.25" />
      <stop offset="100%" style="stop-color:#72f5a8;stop-opacity:0.15" />
    </linearGradient>
  </defs>

  <!-- Background -->
  <rect width="600" height="300" fill="#13151c"/>

  <!-- Left Side: Original Points -->
  <rect x="1" y="1" width="298" height="298" fill="none" stroke="#2d3448" stroke-width="1.5"/>
  <text x="150" y="30" text-anchor="middle" class="title">A Set of Points</text>
  <circle class="point" cx="80" cy="100" r="6"/>
  <circle class="point" cx="120" cy="200" r="6"/>
  <circle class="point" cx="150" cy="120" r="6"/>
  <circle class="point" cx="220" cy="180" r="6"/>
  <circle class="point" cx="200" cy="80" r="6"/>
  <circle class="point" cx="160" cy="160" r="6"/>
  <text x="150" y="270" text-anchor="middle" class="label">An arbitrary collection of points, S.</text>

  <!-- Right Side: Convex Hull -->
  <rect x="301" y="1" width="298" height="298" fill="none" stroke="#2d3448" stroke-width="1.5"/>
  <text x="450" y="30" text-anchor="middle" class="title">Convex Hull of the Set</text>
  <path class="hull-line" d="M 380,100 L 500,80 L 520,180 L 420,200 Z"/>

  <circle class="point" cx="380" cy="100" r="6"/>
  <circle class="point" cx="420" cy="200" r="6"/>
  <circle class="point" cx="450" cy="120" r="6"/>
  <circle class="point" cx="520" cy="180" r="6"/>
  <circle class="point" cx="500" cy="80" r="6"/>
  <circle class="point" cx="460" cy="160" r="6"/>

  <text x="450" y="270" text-anchor="middle" class="label">The smallest convex set that</text>
  <text x="450" y="285" text-anchor="middle" class="label">contains all points in S.</text>

</svg>
